<svg xmlns="http://www.w3.org/2000/svg" xmlns:xlink="http://www.w3.org/1999/xlink" width="200" zoomAndPan="magnify" viewBox="0 0 150 74.999997" height="100" preserveAspectRatio="xMidYMid meet" version="1.2"><defs><clipPath id="15f419db8d"><path d="M 54.527344 17.027344 L 95.472656 17.027344 L 95.472656 57.972656 L 54.527344 57.972656 Z M 54.527344 17.027344 "/></clipPath><clipPath id="bab3880695"><path d="M 75 17.027344 C 63.691406 17.027344 54.527344 26.191406 54.527344 37.5 C 54.527344 48.808594 63.691406 57.972656 75 57.972656 C 86.308594 57.972656 95.472656 48.808594 95.472656 37.5 C 95.472656 26.191406 86.308594 17.027344 75 17.027344 Z M 75 17.027344 "/></clipPath></defs><g id="9ae170af5b"><path style="fill:none;stroke-width:6;stroke-linecap:butt;stroke-linejoin:miter;stroke:#83b4ff;stroke-opacity:1;stroke-miterlimit:4;" d="M 0.000936892 3.000828 L 171.053036 3.000828 " transform="matrix(0.749794,0,0,0.749794,10.854766,35.249996)"/><g clip-rule="nonzero" clip-path="url(#15f419db8d)"><g clip-rule="nonzero" clip-path="url(#bab3880695)"><path style=" stroke:none;fill-rule:nonzero;fill:#83b4ff;fill-opacity:1;" d="M 54.527344 17.027344 L 95.472656 17.027344 L 95.472656 57.972656 L 54.527344 57.972656 Z M 54.527344 17.027344 "/></g></g></g></svg>